<?xml version="1.0" standalone="no"?>
<!DOCTYPE svg PUBLIC "-//W3C//DTD SVG 20010904//EN"
 "http://www.w3.org/TR/2001/REC-SVG-20010904/DTD/svg10.dtd">
<svg version="1.0" xmlns="http://www.w3.org/2000/svg"
 width="700.000000pt" height="700.000000pt" viewBox="0 0 700.000000 700.000000"
 preserveAspectRatio="xMidYMid meet">
<metadata>
Created by potrace 1.14, written by Peter Selinger 2001-2017
</metadata>
<g transform="translate(0.000000,700.000000) scale(0.100000,-0.100000)"
fill="#000000" stroke="none">
<path d="M3245 6024 c-216 -45 -361 -107 -590 -250 -206 -128 -594 -402 -603
-426 -2 -4 -10 -8 -17 -8 -7 0 -15 -4 -17 -8 -8 -21 -346 -261 -503 -359 -74
-46 -249 -142 -260 -143 -3 0 -26 -10 -52 -21 -99 -43 -193 -61 -318 -62 -134
-1 -177 4 -250 28 -74 26 -150 70 -244 144 -47 36 -93 72 -104 79 -17 13 -18
9 -16 -110 3 -209 34 -343 120 -527 89 -190 275 -424 454 -571 256 -210 597
-369 940 -438 90 -18 137 -25 255 -38 19 -2 109 -5 200 -5 221 -1 295 6 520
52 278 56 542 150 825 294 256 131 337 177 499 284 38 25 77 51 85 56 67 41
306 219 441 328 9 6 49 39 90 71 41 33 77 62 80 66 3 3 39 32 80 65 41 33 81
66 89 73 8 8 46 39 85 70 39 31 73 59 76 62 3 3 66 56 140 117 334 274 585
382 892 385 87 1 234 -9 247 -16 3 -2 27 -7 52 -10 45 -6 229 -58 319 -90 25
-9 48 -16 51 -16 5 0 5 143 0 171 -1 7 -84 67 -126 92 -152 88 -329 157 -470
180 -79 13 -286 15 -375 3 -134 -18 -326 -71 -455 -126 -46 -20 -253 -121
-290 -142 -126 -72 -360 -222 -419 -269 -6 -5 -121 -91 -256 -191 -135 -101
-247 -185 -250 -189 -11 -12 -280 -200 -390 -271 -334 -218 -701 -391 -960
-453 -8 -2 -16 -4 -17 -5 -4 -3 -7 -4 -73 -18 -139 -31 -130 -29 -260 -46
-194 -26 -230 -29 -387 -30 -134 -2 -337 13 -412 29 -14 3 -35 7 -46 9 -46 10
-161 49 -180 62 -18 13 -16 14 25 15 25 0 59 3 75 5 17 2 73 11 125 19 52 8
115 16 140 19 86 10 115 15 215 36 55 12 111 23 125 26 108 21 345 99 485 158
100 42 255 125 401 216 194 121 254 163 588 420 359 276 540 396 816 543 175
94 462 194 635 222 142 24 442 33 517 16 57 -13 60 -1 16 64 -162 240 -383
317 -747 260 -322 -51 -917 -319 -1365 -616 -65 -44 -120 -79 -122 -79 -2 0
-12 -6 -21 -14 -23 -19 -224 -162 -283 -201 -25 -16 -53 -37 -62 -45 -31 -28
-292 -187 -407 -249 -176 -94 -473 -215 -578 -235 -10 -2 -36 -9 -58 -15 -22
-6 -58 -13 -80 -16 -22 -4 -51 -8 -65 -11 -86 -14 -382 -25 -375 -13 3 4 31
17 62 29 132 49 390 217 579 377 508 429 711 578 989 724 281 147 508 204 813
203 67 -1 122 2 122 5 0 3 -16 26 -35 51 -139 177 -260 232 -499 229 -83 -1
-156 -9 -231 -25z"/>
<path d="M5398 1915 c-2 -2 -24 -6 -50 -9 -76 -10 -175 -45 -205 -71 l-28 -24
30 -2 c80 -5 129 -1 205 16 139 31 217 33 275 6 72 -34 78 -42 78 -107 1 -94
-49 -171 -148 -229 -44 -26 -236 -108 -240 -103 -2 2 33 92 77 201 43 109 78
203 76 208 -6 18 -69 -32 -97 -76 -16 -26 -46 -92 -67 -148 -32 -90 -59 -146
-124 -262 -23 -41 -50 -123 -50 -151 0 -20 7 -16 47 29 26 29 49 54 50 56 3 4
61 -43 123 -99 106 -96 259 -122 407 -71 109 38 193 96 223 152 l13 23 23 -29
c13 -16 28 -51 34 -77 14 -56 22 -63 70 -60 55 4 111 32 161 80 l46 44 30 -44
c28 -42 31 -43 79 -41 27 1 59 5 71 8 25 6 45 58 43 107 -1 18 -2 38 -1 45 1
6 33 17 76 24 76 12 86 19 61 44 -10 10 -43 13 -127 12 -63 -1 -133 2 -156 6
l-43 6 -30 -52 c-38 -67 -51 -85 -75 -109 -30 -30 -94 -60 -118 -56 -19 3 -23
12 -29 68 -11 103 -16 131 -21 136 -11 11 -74 -30 -132 -86 -103 -97 -189
-137 -316 -147 -131 -10 -229 25 -303 107 -34 38 -36 43 -22 58 8 10 43 31 78
48 35 17 106 53 159 79 183 91 260 203 235 339 -12 64 -84 123 -171 141 -31 6
-212 15 -217 10z m1060 -645 c37 -23 39 -45 5 -67 -21 -14 -23 -14 -33 11 -17
46 -23 76 -14 76 5 0 24 -9 42 -20z"/>
<path d="M558 1788 c-75 -81 -193 -309 -247 -478 -30 -92 -44 -190 -34 -231
l6 -20 22 21 c27 25 47 75 75 190 20 79 154 380 170 380 11 0 51 -108 52 -140
0 -3 5 -16 10 -30 5 -14 11 -32 13 -40 9 -47 61 -184 91 -240 42 -80 90 -131
149 -160 162 -78 272 48 278 317 3 149 -26 302 -70 370 -15 22 -18 23 -32 9
-11 -12 -15 -35 -13 -93 1 -43 4 -89 7 -103 11 -49 19 -146 18 -215 -1 -73
-27 -161 -61 -201 -16 -21 -19 -21 -63 -8 -59 18 -117 77 -157 158 -26 53 -71
212 -87 301 -19 111 -29 154 -46 202 -11 29 -25 53 -31 53 -6 0 -28 -19 -50
-42z"/>
<path d="M4560 1645 c-91 -47 -165 -147 -210 -288 -22 -67 -23 -69 -79 -94
-95 -44 -183 -69 -246 -72 l-60 -2 30 25 c17 14 33 25 36 26 10 0 47 74 54
108 5 23 3 32 -7 33 -7 0 -26 2 -43 4 -16 3 -53 -2 -82 -10 -132 -38 -155
-194 -37 -247 77 -33 181 -15 346 62 37 16 72 30 79 30 6 0 36 -16 64 -35 80
-53 118 -65 201 -66 59 0 176 36 261 82 65 35 89 57 103 95 10 25 9 26 -17 19
-15 -3 -81 -31 -147 -62 -110 -51 -126 -55 -195 -56 -47 -1 -98 5 -134 16 -54
17 -57 19 -46 40 7 12 40 47 73 77 64 58 164 157 182 181 26 36 42 123 25 143
-17 20 -103 15 -151 -9z m58 -86 c-21 -39 -177 -193 -186 -185 -6 6 46 110 69
140 19 25 113 86 132 86 5 0 -2 -19 -15 -41z m-597 -226 c-14 -23 -81 -89 -81
-80 0 21 33 68 58 81 35 19 35 19 23 -1z"/>
<path d="M3739 1643 c-20 -5 -37 -42 -50 -107 -5 -28 -20 -74 -34 -101 l-24
-51 -66 2 c-77 1 -157 -12 -200 -33 -84 -43 -130 -125 -100 -183 49 -94 189
-70 343 60 40 33 74 60 76 60 3 0 5 -17 4 -38 -1 -56 8 -75 41 -95 29 -17 29
-17 35 10 3 16 4 93 2 173 -2 80 0 172 5 204 9 66 -4 104 -32 99z m-159 -332
c0 -15 -77 -80 -112 -94 -20 -9 -61 -18 -92 -22 l-55 -7 11 37 c7 20 24 45 38
55 50 36 210 59 210 31z"/>
<path d="M6247 1591 c-54 -28 -138 -95 -166 -132 l-24 -32 39 5 c40 6 169 77
192 106 13 17 17 72 4 72 -4 0 -25 -9 -45 -19z"/>
<path d="M1698 1588 c-7 -7 -36 -31 -63 -52 -51 -40 -104 -95 -105 -109 0 -12
50 3 118 36 36 17 81 50 104 75 38 42 40 46 22 53 -30 12 -61 10 -76 -3z"/>
<path d="M1923 1518 c-34 -37 -68 -97 -59 -106 4 -3 25 9 49 27 80 60 80 60
137 2 28 -28 54 -51 58 -52 4 0 15 -2 25 -4 30 -6 67 36 81 93 8 28 11 52 8
52 -7 0 -46 -24 -84 -52 -15 -11 -22 -8 -50 19 -68 64 -118 70 -165 21z"/>
<path d="M2911 1492 c-13 -2 -44 -24 -69 -49 -25 -25 -59 -49 -76 -53 -31 -6
-194 -5 -252 3 -39 5 -94 -13 -121 -39 -11 -10 -35 -41 -53 -69 -42 -62 -48
-68 -89 -89 -60 -32 -73 -22 -98 78 -13 49 -25 92 -28 95 -3 3 -24 4 -47 2
-49 -2 -112 -35 -133 -68 -21 -31 -29 -29 -62 16 l-29 40 -27 -18 c-15 -10
-48 -45 -72 -79 -50 -68 -78 -90 -129 -102 -25 -5 -36 -4 -40 6 -6 15 -21 185
-18 198 2 5 -4 6 -13 2 -9 -3 -24 -6 -32 -6 -8 0 -44 -28 -78 -62 -44 -44 -90
-77 -152 -108 -100 -50 -123 -67 -123 -88 0 -12 11 -14 60 -9 78 7 134 36 192
99 56 62 66 58 98 -38 l22 -64 42 0 c79 0 139 31 185 96 13 19 26 32 28 30 2
-2 6 -29 8 -61 2 -31 6 -59 9 -62 9 -10 77 41 156 117 75 72 110 98 110 83 10
-156 39 -203 115 -189 29 6 135 74 173 113 19 18 22 17 58 -22 56 -62 122 -75
161 -33 13 15 17 36 17 84 l-1 64 31 1 c17 0 40 2 51 5 11 2 42 7 68 10 46 5
50 4 89 -35 44 -44 44 -53 1 -57 -16 -1 -31 -2 -35 -3 -10 -1 -38 -31 -38 -40
0 -4 21 -18 46 -30 37 -19 56 -22 101 -18 30 3 57 8 60 11 3 3 6 23 6 44 0 43
-25 102 -60 145 -35 43 -30 54 27 62 l50 7 -14 26 c-20 39 -47 59 -75 54z
m-399 -202 c39 -30 41 -56 7 -71 -17 -6 -31 -10 -33 -8 -2 2 -7 25 -11 52 -8
52 -1 58 37 27z"/>
</g>
</svg>
